<?xml version="1.0" encoding="UTF-8"?>
<svg width="100px" height="19px" viewBox="0 0 100 19" version="1.1" xmlns="http://www.w3.org/2000/svg" xmlns:xlink="http://www.w3.org/1999/xlink">
    <!-- Generator: sketchtool 49.2 (51160) - http://www.bohemiancoding.com/sketch -->
    <title>E3DA82FC-5732-4220-BA42-88CB943E6CFE</title>
    <desc>Created with sketchtool.</desc>
    <defs>
        <path d="M97.1805267,15.9476784 L95.4657673,15.9476784 L95.4657673,12.6510776 C95.4657673,12.4559474 95.4575909,12.2722686 95.4416925,12.0995829 C95.4257941,11.9273554 95.3812785,11.7771143 95.3090542,11.6493177 C95.2368299,11.5219793 95.129629,11.4207498 94.9892686,11.3456292 C94.8479996,11.2705087 94.6567642,11.2329484 94.4155623,11.2329484 C94.1739061,11.2329484 93.9785825,11.2764634 93.8300458,11.3621191 C93.6810547,11.4486909 93.5643148,11.5613717 93.4802803,11.7001615 C93.3953372,11.8389513 93.3390113,11.9965212 93.3103942,12.1728713 C93.2826855,12.3492213 93.2690582,12.5269455 93.2690582,12.70696 L93.2690582,15.9476784 L91.5538446,15.9476784 L91.5538446,12.6845154 C91.5538446,12.5122878 91.5502107,12.3414344 91.5424886,12.1728713 C91.533858,12.00385 91.4997899,11.8481123 91.4393759,11.7056581 C91.3794161,11.563204 91.2785746,11.4486909 91.1377599,11.3621191 C90.9969452,11.2764634 90.7893571,11.2329484 90.5159041,11.2329484 C90.4355035,11.2329484 90.3287569,11.2498963 90.1961185,11.2833341 C90.0634802,11.317688 89.9344757,11.3813573 89.8095595,11.4747999 C89.6850975,11.5687006 89.5783509,11.7038259 89.4897739,11.880176 C89.4011969,12.056526 89.3571356,12.2869262 89.3571356,12.5722927 L89.3571356,15.9476784 L87.6423761,15.9476784 L87.6423761,10.1304171 L89.2603822,10.1304171 L89.2603822,10.9182666 L89.284457,10.9182666 C89.5097605,10.6177845 89.7813966,10.385094 90.0993652,10.2201953 C90.4173338,10.0557546 90.781635,9.97284716 91.1918146,9.97284716 C91.5865499,9.97284716 91.946763,10.0438452 92.2724537,10.1867575 C92.5985987,10.3292117 92.84616,10.5802242 93.0151376,10.9402531 C93.2000136,10.6855762 93.4516631,10.4606726 93.7696317,10.2655424 C94.0876004,10.0704122 94.4641661,9.97284716 94.8988746,9.97284716 C95.2286535,9.97284716 95.5339034,10.0104074 95.815987,10.0850699 C96.0976164,10.1601905 96.3388183,10.2806581 96.5405013,10.4450988 C96.7412757,10.6104556 96.8984431,10.8261982 97.0110948,11.0923264 C97.1237466,11.3584547 97.1805267,11.6795492 97.1805267,12.0542358 L97.1805267,15.9476784 Z M86.2546702,14.3046456 C86.101591,14.6797903 85.8840096,15.0008848 85.6023802,15.267013 C85.3207509,15.5335993 84.9809787,15.7378905 84.5826094,15.8803447 C84.1842401,16.0223409 83.739084,16.093797 83.2485038,16.093797 C82.7574694,16.093797 82.3145845,16.0223409 81.9203034,15.8803447 C81.5260223,15.7378905 81.1876129,15.5335993 80.9059835,15.267013 C80.6243541,15.0008848 80.407227,14.6797903 80.2541478,14.3046456 C80.1010686,13.929959 80.0247561,13.5099253 80.0247561,13.0445444 C80.0247561,12.5796215 80.1010686,12.1577555 80.2541478,11.7784884 C80.407227,11.4001374 80.6243541,11.0772107 80.9059835,10.8110824 C81.1876129,10.5449542 81.5260223,10.3383727 81.9203034,10.1922541 C82.3145845,10.0456774 82.7574694,9.97284716 83.2485038,9.97284716 C83.739084,9.97284716 84.1842401,10.0456774 84.5826094,10.1922541 C84.9809787,10.3383727 85.3207509,10.5449542 85.6023802,10.8110824 C85.8840096,11.0772107 86.101591,11.4001374 86.2546702,11.7784884 C86.4072951,12.1577555 86.4840618,12.5796215 86.4840618,13.0445444 C86.4840618,13.5099253 86.4072951,13.929959 86.2546702,14.3046456 Z M77.5409669,4.79685873 C77.5936588,4.92465526 77.6690628,5.03367165 77.7676331,5.12436596 C77.8657491,5.21506027 77.9852145,5.28605834 78.1251207,5.33644407 C78.2650269,5.38637175 78.4226485,5.41202266 78.5975312,5.41202266 C78.8119329,5.41202266 78.9986259,5.37675265 79.1585187,5.30667068 C79.3179573,5.23567261 79.4614974,5.12161765 79.5882306,4.96313163 L79.9261859,5.17795805 C79.7531201,5.4088163 79.558705,5.5741731 79.342032,5.6735704 C79.1253591,5.7729677 78.8696215,5.82289537 78.5743649,5.82289537 C78.3667768,5.82289537 78.1732702,5.79083173 77.993845,5.72716249 C77.8144199,5.66257715 77.6590695,5.5741731 77.5277939,5.46057618 C77.2107337,5.18711909 77.0522036,4.8247999 77.0522036,4.37453472 C77.0522036,3.93480473 77.2130049,3.57523385 77.5346075,3.29628014 C77.6658831,3.18085101 77.820325,3.09107281 77.9988417,3.02648746 C78.1769041,2.96236017 78.3685938,2.93029653 78.5743649,2.93029653 C78.8678045,2.93029653 79.1294473,2.99030135 79.3602017,3.10985294 C79.5909561,3.22894648 79.7849169,3.40575458 79.9425385,3.63936114 L79.5850509,3.78639585 C79.4601347,3.63249036 79.3152318,3.51980955 79.1503424,3.44835342 C78.9849987,3.37735535 78.793309,3.34162729 78.5743649,3.34162729 C78.4081127,3.34162729 78.2568505,3.36727821 78.120124,3.41903809 C77.9833975,3.47079797 77.8662033,3.54271215 77.7689958,3.63478062 C77.6717882,3.72684908 77.5963842,3.83632353 77.5427838,3.96228785 C77.4891834,4.08825217 77.4623832,4.22612584 77.4623832,4.37453472 C77.4623832,4.52844021 77.4887291,4.66952025 77.5409669,4.79685873 Z M78.2863762,15.48642 C77.7549143,15.891338 77.0749157,16.093797 76.245926,16.093797 C75.7789664,16.093797 75.3506172,16.0209667 74.9604243,15.8743901 C74.5697771,15.7282715 74.237727,15.5239802 73.964274,15.2615164 C73.6908209,14.9990526 73.4773277,14.6857449 73.3242485,14.3215935 C73.1716236,13.9579002 73.0948569,13.5584788 73.0948569,13.1233293 C73.0948569,12.6735222 73.1652642,12.2548626 73.3060789,11.8687247 C73.4468936,11.4825868 73.6544817,11.1486668 73.9279347,10.8674229 C74.2018419,10.5861789 74.535709,10.3663139 74.9299901,10.209202 C75.3242712,10.0516321 75.7748782,9.97284716 76.2822653,9.97284716 C76.6524716,9.97284716 77.0085965,10.0181943 77.3506399,10.1079725 C77.6926833,10.1977507 77.9983874,10.3347083 78.2682065,10.5183872 C78.5375714,10.7025241 78.7569698,10.9310921 78.9259474,11.2050072 C79.0953792,11.4789224 79.1916783,11.8032232 79.2162073,12.1783679 L77.5377872,12.1783679 C77.4251354,11.510528 77.0026914,11.176608 76.2700008,11.176608 C75.9965478,11.176608 75.7671561,11.2352387 75.5822801,11.3511258 C75.3964955,11.4679291 75.2456876,11.6177122 75.1294019,11.801391 C75.012662,11.985528 74.9299901,12.1875289 74.8818406,12.4087681 C74.833691,12.6304653 74.809162,12.8494142 74.809162,13.0669889 C74.809162,13.2772348 74.833691,13.4911451 74.8818406,13.7082618 C74.9299901,13.9262946 75.0085738,14.123257 75.1171374,14.299149 C75.225701,14.475499 75.372875,14.6202435 75.5577511,14.7324662 C75.7430813,14.8451471 75.9683848,14.9014875 76.2341158,14.9014875 C76.6447495,14.9014875 76.9599927,14.7943033 77.1816623,14.580851 C77.4028776,14.3669407 77.5418753,14.079742 77.5982012,13.7197131 L79.2520923,13.7197131 C79.1394406,14.492447 78.817838,15.0810439 78.2863762,15.48642 Z M72.7319184,5.74731678 L72.3380915,5.74731678 L72.3380915,3.42819913 L71.2029435,3.42819913 L71.2029435,3.01732642 L73.8666122,3.01732642 L73.8666122,3.42819913 L72.7319184,3.42819913 L72.7319184,5.74731678 Z M70.0042017,15.9476784 L71.899749,15.9476784 L71.899749,14.2148674 L70.0042017,14.2148674 L70.0042017,15.9476784 Z M68.9998751,5.72853664 C68.8190872,5.66349325 68.6637368,5.5741731 68.5324612,5.46057618 C68.2131298,5.18437078 68.053237,4.8238838 68.053237,4.37865718 C68.053237,3.94121745 68.2149468,3.58164658 68.5388206,3.3004026 C68.6723674,3.18451543 68.828172,3.09382112 69.0066887,3.02877772 C69.1847511,2.96281823 69.3764408,2.93029653 69.5822119,2.93029653 C69.7857119,2.93029653 69.9769473,2.96281823 70.1563724,3.02877772 C70.3353433,3.09382112 70.491148,3.18451543 70.6219694,3.3004026 C70.9435719,3.58164658 71.1043732,3.94121745 71.1043732,4.37865718 C71.1043732,4.82617406 70.9449346,5.18849325 70.6256033,5.46469865 C70.4938734,5.57783751 70.3394315,5.66669961 70.1613691,5.73036885 C69.9828524,5.79449614 69.7898,5.82655979 69.5822119,5.82655979 C69.3746238,5.82655979 69.1802087,5.79403809 68.9998751,5.72853664 Z M67.3964047,15.9476784 L66.744569,14.158527 L63.5208213,14.158527 L62.8449108,15.9476784 L60.937099,15.9476784 L64.197186,7.91390309 L66.1408828,7.91390309 L69.3641763,15.9476784 L67.3964047,15.9476784 Z M60.177154,14.2148674 C59.975471,14.6202435 59.7101943,14.9646986 59.3799612,15.2500651 C59.0501823,15.5354315 58.6636233,15.7525482 58.2211926,15.9023312 C57.7783077,16.0525723 57.2913615,16.1276929 56.7603539,16.1276929 C56.0998876,16.1276929 55.506649,16.0209667 54.9792753,15.8070564 C54.4523558,15.5936041 54.007654,15.2990767 53.645624,14.923932 C53.2831397,14.5487874 53.0055985,14.1076832 52.8125461,13.6015357 C52.6190395,13.0949301 52.5227404,12.5493901 52.5227404,11.9644576 C52.5227404,11.3644094 52.6190395,10.807418 52.8125461,10.2934836 C53.0055985,9.77954918 53.2831397,9.33157425 53.645624,8.94910077 C54.007654,8.56662729 54.4523558,8.26614513 54.9792753,8.0485704 C55.506649,7.83099566 56.0998876,7.72243732 56.7603539,7.72243732 C57.2350356,7.72243732 57.6838256,7.78656461 58.1062697,7.91390309 C58.5291679,8.04124156 58.9070964,8.2272107 59.2414177,8.47089441 C59.5752848,8.71457811 59.851009,9.01643443 60.0681361,9.37646336 C60.2857175,9.73649229 60.422444,10.1491972 60.4787699,10.6141201 L58.6436367,10.6141201 C58.6113855,10.411661 58.5391612,10.22615 58.4265095,10.0575868 C58.3134035,9.88810752 58.1725888,9.7401567 58.0036112,9.61281823 C57.8346336,9.48547975 57.6433982,9.38608245 57.4303592,9.31462633 C57.216866,9.2431702 56.9933794,9.20744214 56.7603539,9.20744214 C56.3333674,9.20744214 55.9713374,9.28485294 55.6738096,9.43830039 C55.3758276,9.59220588 55.1346256,9.79832932 54.9492954,10.0575868 C54.7639651,10.3159282 54.6295098,10.6104556 54.545021,10.9402531 C54.4605321,11.2705087 54.4178335,11.6117575 54.4178335,11.9644576 C54.4178335,12.3020419 54.4605321,12.6304653 54.545021,12.9488115 C54.6295098,13.2676157 54.7639651,13.5548144 54.9492954,13.8099494 C55.1346256,14.0650844 55.3758276,14.2693756 55.6738096,14.4232811 C55.9713374,14.5767285 56.3333674,14.6536813 56.7603539,14.6536813 C57.3399653,14.6536813 57.7923892,14.4887825 58.1185342,14.158527 C58.4446791,13.8287295 58.6436367,13.39358 58.715861,12.8530786 L60.5509942,12.8530786 C60.5028447,13.3560198 60.3779284,13.8099494 60.177154,14.2148674 Z M51.7650666,5.72853664 C51.5856414,5.66349325 51.4302911,5.5741731 51.2990154,5.46057618 C50.9819553,5.18437078 50.8234252,4.8238838 50.8234252,4.37865718 C50.8234252,3.93846914 50.9842265,3.57889826 51.305829,3.3004026 C51.4411928,3.17947686 51.5997229,3.08786644 51.7814193,3.02465526 C51.9631156,2.96190212 52.1620732,2.93029653 52.3787461,2.93029653 C52.6453855,2.93029653 52.8829535,2.98251446 53.0919043,3.08740839 C53.3008551,3.19184426 53.4916363,3.35857522 53.6647021,3.58668515 L53.2972212,3.79784716 C53.1768473,3.64943828 53.0396666,3.53629942 52.8852247,3.45843057 C52.731237,3.38010366 52.5513576,3.34162729 52.3455865,3.34162729 C52.1970497,3.34162729 52.0575977,3.36407184 51.9272306,3.40987705 C51.7973177,3.4552242 51.6842117,3.51797734 51.5879126,3.59905256 C51.3517074,3.80059547 51.2336047,4.06076905 51.2336047,4.37865718 C51.2336047,4.52981437 51.2599507,4.66952025 51.3121884,4.79685873 C51.3648804,4.92465526 51.4398301,5.0341297 51.5370377,5.12619817 C51.6342452,5.21826663 51.7514394,5.28926471 51.8881659,5.34010849 C52.0248924,5.39049421 52.1770631,5.41568708 52.3455865,5.41568708 C52.6035953,5.41568708 52.819814,5.3552242 52.9937883,5.23338235 C53.1673083,5.11245661 53.2926788,4.93656461 53.3694455,4.70662247 L52.2638231,4.70662247 L52.2638231,4.29574976 L53.8613884,4.29574976 L53.8613884,4.33697445 C53.8613884,4.55867165 53.8255034,4.76067261 53.7532791,4.94435149 C53.6810547,5.12803038 53.5793048,5.28514224 53.4480292,5.41568708 C53.3167535,5.54623192 53.1577692,5.64791948 52.970622,5.7193756 C52.783929,5.79083173 52.5754324,5.82655979 52.3455865,5.82655979 C52.1379984,5.82655979 51.9444918,5.79403809 51.7650666,5.72853664 Z M51.2308793,15.9476784 L49.4561601,15.9476784 L49.4561601,10.2540911 L49.4316311,10.2540911 L47.3189566,15.9476784 L45.8581179,15.9476784 L43.7454434,10.3104315 L43.7213686,10.3104315 L43.7213686,15.9476784 L41.9466494,15.9476784 L41.9466494,7.91390309 L44.6144063,7.91390309 L46.6307816,13.4384691 L46.6553106,13.4384691 L48.5626682,7.91390309 L51.2308793,7.91390309 L51.2308793,15.9476784 Z M40.7356431,5.74731678 L40.3418163,5.74731678 L40.3418163,3.01732642 L42.2250991,3.01732642 C42.3450187,3.01732642 42.4544907,3.03702266 42.553061,3.07733124 C42.6516313,3.11763983 42.7343031,3.17489634 42.8024393,3.24910077 C42.8701212,3.32330521 42.9223589,3.41308341 42.9596066,3.51889344 C42.9968544,3.62470347 43.0154783,3.74150675 43.0154783,3.86976133 C43.0154783,4.14138621 42.9423455,4.34842575 42.7956257,4.49179605 C42.6493601,4.63516635 42.4340499,4.70662247 42.1496951,4.70662247 L40.7356431,4.70662247 L40.7356431,5.74731678 Z M40.3895116,13.5058028 C40.2282561,14.0009571 39.9847829,14.4287777 39.658638,14.7888067 C39.3329472,15.1488356 38.9264016,15.4319118 38.4394554,15.6380352 C37.9525091,15.8446167 37.3788028,15.9476784 36.7192451,15.9476784 L33.0003747,15.9476784 L33.0003747,7.91390309 L36.7192451,7.91390309 C37.2743274,7.91390309 37.7912536,7.99635246 38.2704777,8.16125121 C38.7492477,8.32614995 39.1639696,8.57349807 39.5137351,8.90375362 C39.8639548,9.23400916 40.1374079,9.64625603 40.3350027,10.1414103 C40.5321432,10.6365646 40.6307135,11.2182907 40.6307135,11.8856726 C40.6307135,12.4706051 40.5503129,13.0111066 40.3895116,13.5058028 Z M33.836178,3.29628014 C33.9674536,3.18085101 34.1223498,3.09107281 34.3004122,3.02648746 C34.4784747,2.96236017 34.6706186,2.93029653 34.8759355,2.93029653 C35.1693751,2.93029653 35.4310178,2.99030135 35.6617722,3.10985294 C35.8925266,3.22894648 36.0864875,3.40575458 36.2441091,3.63936114 L35.8866215,3.78639585 C35.7621595,3.63249036 35.6172566,3.51980955 35.4519129,3.44835342 C35.2870235,3.37735535 35.0948796,3.34162729 34.8759355,3.34162729 C34.7101375,3.34162729 34.5584211,3.36727821 34.4216945,3.41903809 C34.284968,3.47079797 34.1682281,3.54271215 34.0705663,3.63478062 C33.9733588,3.72684908 33.8979548,3.83632353 33.8443544,3.96228785 C33.7907539,4.08825217 33.7639537,4.22612584 33.7639537,4.37453472 C33.7639537,4.52844021 33.7902997,4.66952025 33.8425374,4.79685873 C33.8952293,4.92465526 33.9706333,5.03367165 34.0692036,5.12436596 C34.1677739,5.21506027 34.286785,5.28605834 34.4266912,5.33644407 C34.5665974,5.38637175 34.724219,5.41202266 34.8991017,5.41202266 C35.1135034,5.41202266 35.3001965,5.37675265 35.4600893,5.30667068 C35.6199821,5.23567261 35.7630679,5.12161765 35.8898012,4.96313163 L36.2277564,5.17795805 C36.0551448,5.4088163 35.8602755,5.5741731 35.6440568,5.6735704 C35.4273839,5.7729677 35.1716463,5.82289537 34.8759355,5.82289537 C34.6683474,5.82289537 34.4748407,5.79083173 34.2954156,5.72716249 C34.1164447,5.66257715 33.9610943,5.5741731 33.8298186,5.46057618 C33.5123043,5.18711909 33.3537742,4.8247999 33.3537742,4.37453472 C33.3537742,3.93480473 33.5145755,3.57523385 33.836178,3.29628014 Z M37.1071668,3.3004026 C37.2402594,3.18451543 37.3965182,3.09382112 37.5745807,3.02877772 C37.7526431,2.96281823 37.944787,2.93029653 38.1501039,2.93029653 C38.3540581,2.93029653 38.5452935,2.96281823 38.7247187,3.02877772 C38.9036896,3.09382112 39.05904,3.18451543 39.1903156,3.3004026 C39.5119181,3.58164658 39.6727194,3.94121745 39.6727194,4.37865718 C39.6727194,4.82617406 39.5128266,5.18849325 39.1934953,5.46469865 C39.0622196,5.57783751 38.9077777,5.66669961 38.7292611,5.73036885 C38.5511986,5.79449614 38.3581462,5.82655979 38.1501039,5.82655979 C37.9425158,5.82655979 37.7485549,5.79403809 37.5682213,5.72853664 C37.3874334,5.66349325 37.2316288,5.5741731 37.1003532,5.46057618 C36.7810218,5.18437078 36.6215833,4.8238838 36.6215833,4.37865718 C36.6215833,3.94121745 36.783293,3.58164658 37.1071668,3.3004026 Z M43.5374011,3.01732642 L44.5476328,4.29208534 L45.5515052,3.01732642 L46.0407227,3.01732642 L44.7411395,4.6690622 L44.7411395,5.74731678 L44.3473126,5.74731678 L44.3473126,4.6690622 L43.0486378,3.01732642 L43.5374011,3.01732642 Z M46.4536277,3.01732642 L48.3269172,3.01732642 C48.5781124,3.01732642 48.7747987,3.09382112 48.9160676,3.24726856 C49.0568823,3.40025796 49.1272897,3.61050386 49.1272897,3.87663211 C49.1272897,3.99755786 49.1122997,4.10474204 49.0814113,4.19772662 C49.0505229,4.29071119 49.0078243,4.3708703 48.9519527,4.4368298 C48.896081,4.5037054 48.8306703,4.55729749 48.7552664,4.59760608 C48.6798624,4.63791466 48.598099,4.66631389 48.5104305,4.68417792 L49.146822,5.74731678 L48.6907641,5.74731678 L48.0480133,4.70662247 L46.8474545,4.70662247 L46.8474545,5.74731678 L46.4536277,5.74731678 L46.4536277,3.01732642 Z M49.7605015,5.74777483 L50.1956802,5.74777483 L50.1956802,3.01732642 L49.7605015,3.01732642 L49.7605015,5.74777483 Z M54.5304852,3.01732642 L54.9243121,3.01732642 L54.9243121,4.12581244 L56.8271273,4.12581244 L56.8271273,3.01732642 L57.2209541,3.01732642 L57.2209541,5.74731678 L56.8271273,5.74731678 L56.8271273,4.5371432 L54.9243121,4.5371432 L54.9243121,5.74731678 L54.5304852,5.74731678 L54.5304852,3.01732642 Z M57.6343134,3.01732642 L60.297982,3.01732642 L60.297982,3.42819913 L59.1632882,3.42819913 L59.1632882,5.74731678 L58.7694614,5.74731678 L58.7694614,3.42819913 L57.6343134,3.42819913 L57.6343134,3.01732642 Z M61.7447393,3.01732642 L63.6280221,3.01732642 C63.7479417,3.01732642 63.8574138,3.03702266 63.9559841,3.07733124 C64.0545543,3.11763983 64.1372262,3.17489634 64.2053623,3.24910077 C64.2730442,3.32330521 64.3252819,3.41308341 64.3625297,3.51889344 C64.3997774,3.62470347 64.4184013,3.74150675 64.4184013,3.86976133 C64.4184013,4.14138621 64.3452685,4.34842575 64.1990029,4.49179605 C64.0522831,4.63516635 63.8369729,4.70662247 63.5526181,4.70662247 L62.1385662,4.70662247 L62.1385662,5.74731678 L61.7447393,5.74731678 L61.7447393,3.01732642 Z M64.8712795,3.01732642 L66.744569,3.01732642 C66.9957642,3.01732642 67.1924505,3.09382112 67.3332652,3.24726856 C67.4745341,3.40025796 67.5449415,3.61050386 67.5449415,3.87663211 C67.5449415,3.99755786 67.5299515,4.10474204 67.4990631,4.19772662 C67.4681747,4.29071119 67.4254761,4.3708703 67.3696045,4.4368298 C67.3137328,4.5037054 67.2478679,4.55729749 67.1724639,4.59760608 C67.0970599,4.63791466 67.0157508,4.66631389 66.9280823,4.68417792 L67.5644738,5.74731678 L67.1084159,5.74731678 L66.4656651,4.70662247 L65.2651063,4.70662247 L65.2651063,5.74731678 L64.8712795,5.74731678 L64.8712795,3.01732642 Z M74.2799714,3.01732642 L76.6747294,3.01732642 L76.6747294,3.42819913 L74.6737982,3.42819913 L74.6737982,4.12581244 L76.0646839,4.12581244 L76.0646839,4.5371432 L74.6737982,4.5371432 L74.6737982,5.33644407 L76.7669403,5.33644407 L76.7669403,5.74731678 L74.2799714,5.74731678 L74.2799714,3.01732642 Z M80.0542818,3.01732642 L82.7179505,3.01732642 L82.7179505,3.42819913 L81.5832567,3.42819913 L81.5832567,5.74731678 L81.1894298,5.74731678 L81.1894298,3.42819913 L80.0542818,3.42819913 L80.0542818,3.01732642 Z M83.1313097,3.01732642 L85.5260678,3.01732642 L85.5260678,3.42819913 L83.5251366,3.42819913 L83.5251366,4.12581244 L84.9160222,4.12581244 L84.9160222,4.5371432 L83.5251366,4.5371432 L83.5251366,5.33644407 L85.6182787,5.33644407 L85.6182787,5.74731678 L83.1313097,5.74731678 L83.1313097,3.01732642 Z M86.2119715,3.01732642 L87.7146004,3.01732642 C87.9221885,3.01732642 88.1093358,3.05076422 88.275588,3.11718177 C88.4418401,3.18405738 88.5826548,3.2775 88.6989405,3.39842575 C88.8147719,3.51889344 88.9038031,3.66547011 88.9660341,3.83769769 C89.0282651,4.00992527 89.0596078,4.20093298 89.0596078,4.41255304 C89.0596078,4.60585101 89.0273567,4.78449132 88.9628544,4.94801591 C88.8983522,5.1115405 88.8025074,5.25720106 88.6757742,5.38545564 C88.5594885,5.50363308 88.4263959,5.59386933 88.275588,5.65479026 C88.1243257,5.71662729 87.962616,5.74731678 87.7900044,5.74731678 L86.2119715,5.74731678 L86.2119715,3.01732642 Z M90.6898784,3.01732642 L92.6095004,3.01732642 C92.7316913,3.01732642 92.8411633,3.03519045 92.9370081,3.07000241 C93.0337615,3.10527242 93.1146163,3.1552001 93.180027,3.22115959 C93.245892,3.28620299 93.2958585,3.36452989 93.330835,3.45614031 C93.3658116,3.54866683 93.383527,3.65081244 93.383527,3.7639513 C93.383527,3.89220588 93.3585437,4.00305448 93.3099399,4.095581 C93.2604277,4.18856557 93.181844,4.27055689 93.0750974,4.34063886 C93.3462792,4.44644889 93.481643,4.67684908 93.481643,5.03092334 C93.481643,5.26773626 93.4066932,5.44591851 93.257248,5.56638621 C93.1073485,5.68731196 92.8824992,5.74731678 92.5831545,5.74731678 L90.6898784,5.74731678 L90.6898784,3.01732642 Z M94.0494441,3.01732642 L95.0601301,4.29208534 L96.0635483,3.01732642 L96.5523115,3.01732642 L95.2536368,4.6690622 L95.2536368,5.74731678 L94.8598099,5.74731678 L94.8598099,4.6690622 L93.5606809,3.01732642 L94.0494441,3.01732642 Z M96.4378428,5.79045841 L96.9461384,5.79045841 L96.9461384,5.33644407 L96.4378428,5.33644407 L96.4378428,5.79045841 Z M96.4378428,4.41767635 L96.9461384,4.41767635 L96.9461384,3.96366201 L96.4378428,3.96366201 L96.4378428,4.41767635 Z M30.0909617,18.8242454 L100,18.8242454 L100,0.502162488 L30.0909617,0.502162488 L30.0909617,18.8242454 Z M7.11795501,13.0137175 C7.77796704,13.7713356 8.61695,14.1496866 9.63399539,14.1496866 C10.6769325,14.1496866 11.4723083,13.8249277 12.0201229,13.1749518 C12.3226473,12.8254581 12.5738425,12.3009884 12.7737085,11.602001 L15.795319,11.602001 C15.5345848,13.080135 14.8686676,14.2820636 13.7971133,15.2077869 C12.7260132,16.1339682 11.3532972,16.5966008 9.67987372,16.5966008 C7.60853519,16.5966008 5.98053578,15.9713597 4.79542125,14.7204195 C3.60985249,13.4630665 3.01752234,11.7398746 3.01752234,9.55084378 C3.01752234,7.18363067 3.69161585,5.35920926 5.03980286,4.07757956 C6.21219864,2.96176471 7.70347154,2.40339923 9.51362155,2.40339923 C11.9365425,2.40339923 13.7080821,3.15185632 14.8282402,4.64785439 C15.4469163,5.48837994 15.7789664,6.33119576 15.8248447,7.17767599 L12.7832476,7.17767599 C12.589741,6.5277001 12.3417254,6.03712633 12.0382925,5.70595468 C11.4968373,5.11735776 10.6937394,4.82237223 9.62990722,4.82237223 C8.54608842,4.82237223 7.69166127,5.23828351 7.06617154,6.06918997 C6.44068182,6.90009643 6.12770983,8.0759161 6.12770983,9.59664899 C6.12770983,11.1178399 6.45794297,12.2570154 7.11795501,13.0137175 M9.4209564,0 C14.624286,0 18.842367,4.25347155 18.842367,9.5 C18.842367,14.7469865 14.624286,19 9.4209564,19 C4.21808106,19 0,14.7469865 0,9.5 C0,4.25347155 4.21808106,0 9.4209564,0 Z M21.2056462,9.66329556 C21.2056462,6.00712392 19.6026301,2.73021938 17.0693285,0.502254098 L28.2300276,0.502254098 L28.2300276,18.824337 L17.0693285,18.824337 C19.6026301,16.5959137 21.2056462,13.3194672 21.2056462,9.66329556 Z M63.9002941,4.18815333 C63.8235274,4.25960945 63.7099672,4.29533751 63.5591592,4.29533751 L62.1387479,4.29533751 L62.1387479,3.42824494 L63.5328132,3.42824494 C63.8544158,3.42824494 64.0147628,3.57802797 64.0147628,3.87667792 C64.0147628,4.01271938 63.9766066,4.1166972 63.9002941,4.18815333 Z M48.6073655,4.18815333 C48.5296903,4.25960945 48.4165843,4.29533751 48.2675933,4.29533751 L46.847182,4.29533751 L46.847182,3.42824494 L48.2317083,3.42824494 C48.5601245,3.42824494 48.7236512,3.57802797 48.7236512,3.87667792 C48.7236512,4.01271938 48.6850407,4.1166972 48.6073655,4.18815333 Z M37.3351957,5.12798457 C37.2379882,5.03729026 37.1630384,4.92781581 37.1103465,4.80047734 C37.0581088,4.67313886 37.0317628,4.53251688 37.0317628,4.37861138 C37.0317628,4.22974446 37.0590172,4.09141273 37.1135262,3.96407425 C37.1684893,3.83673578 37.2448018,3.72680328 37.3433721,3.63473481 C37.4419423,3.54266635 37.5591365,3.47075217 37.695863,3.41945034 C37.8325895,3.3672324 37.984306,3.34158149 38.1501039,3.34158149 C38.3013661,3.34158149 38.4412723,3.36402604 38.5702767,3.40983124 C38.6992812,3.4551784 38.8119329,3.51793153 38.908232,3.59900675 C39.1444373,3.80100771 39.2625399,4.06072324 39.2625399,4.37861138 C39.2625399,4.53251688 39.2361939,4.67313886 39.1839562,4.80047734 C39.1312643,4.92781581 39.057223,5.03729026 38.9609239,5.12798457 C38.8646249,5.21867888 38.7478849,5.28967695 38.6116127,5.34006268 C38.4744319,5.39044841 38.3208985,5.41564127 38.1501039,5.41564127 C37.9797636,5.41564127 37.8257759,5.39044841 37.6876867,5.34006268 C37.5500517,5.28967695 37.4324033,5.21867888 37.3351957,5.12798457 Z M38.1919849,10.119149 C38.3850373,10.3518394 38.524035,10.6307932 38.6085238,10.9573843 C38.6930126,11.2835174 38.735257,11.649501 38.735257,12.054419 C38.735257,12.4968973 38.674843,12.8725 38.5540149,13.1798529 C38.4336411,13.4876639 38.2723856,13.7363862 38.0711568,13.927852 C37.8699281,14.1188597 37.6405365,14.2562753 37.3829819,14.3387247 C37.1254273,14.4216321 36.8596963,14.4623987 36.5862433,14.4623987 L34.8960129,14.4623987 L34.8960129,9.39909113 L36.2482881,9.39909113 C36.7147935,9.39909113 37.1072576,9.46092816 37.4252263,9.58460222 C37.7431949,9.70873433 37.9989325,9.88645853 38.1919849,10.119149 Z M88.1491727,5.26663693 C88.049694,5.31335824 87.9411304,5.33626085 87.8225735,5.33626085 L86.6056621,5.33626085 L86.6056621,3.42801591 L87.7471695,3.42801591 C87.8807163,3.42801591 88.0015444,3.45137657 88.110108,3.49809788 C88.2182173,3.54436114 88.3108825,3.61077869 88.3885577,3.69597637 C88.4662329,3.78163211 88.5266469,3.88377772 88.5688913,4.00332932 C88.6120442,4.12288091 88.6329393,4.25525796 88.6329393,4.40091851 C88.6329393,4.53695998 88.6129527,4.6620082 88.5725252,4.77652122 C88.5320978,4.89103423 88.4762262,4.98951543 88.4049103,5.07242285 C88.3340488,5.15533028 88.2486515,5.21991562 88.1491727,5.26663693 Z M92.8914024,4.05215767 C92.8191781,4.12407184 92.7274214,4.1597999 92.6161324,4.1597999 L91.0839778,4.1597999 L91.0839778,3.42829074 L92.6320308,3.42829074 C92.7460453,3.42829074 92.8355307,3.46081244 92.9009414,3.52631389 C92.9668063,3.59181533 92.9995117,3.67976133 92.9995117,3.79060993 C92.9995117,3.8932136 92.9636267,3.98070154 92.8914024,4.05215767 Z M67.0249719,4.18815333 C66.9472967,4.25960945 66.8341907,4.29533751 66.6851997,4.29533751 L65.2647884,4.29533751 L65.2647884,3.42824494 L66.6493147,3.42824494 C66.9777308,3.42824494 67.1412576,3.57802797 67.1412576,3.87667792 C67.1412576,4.01271938 67.1026471,4.1166972 67.0249719,4.18815333 Z M42.4972802,4.18815333 C42.4205135,4.25960945 42.3069533,4.29533751 42.1561453,4.29533751 L40.735734,4.29533751 L40.735734,3.42824494 L42.1297993,3.42824494 C42.4514019,3.42824494 42.6117489,3.57802797 42.6117489,3.87667792 C42.6117489,4.01271938 42.5735927,4.1166972 42.4972802,4.18815333 Z M92.9584029,5.2496432 C92.8784565,5.30781581 92.7544487,5.33621504 92.5863796,5.33621504 L91.0837507,5.33621504 L91.0837507,4.57126808 L92.6486106,4.57126808 C92.7953304,4.57126808 92.9034397,4.60287367 92.9733928,4.66745902 C93.0433459,4.73112825 93.0783225,4.83098361 93.0783225,4.96702507 C93.0783225,5.09756991 93.0383493,5.19192864 92.9584029,5.2496432 Z M70.6156554,4.80052314 C70.5629635,4.92786162 70.4889222,5.03733607 70.3926231,5.12803038 C70.2963241,5.21872469 70.1800384,5.28926471 70.0433119,5.34010849 C69.9061311,5.39049421 69.7530519,5.41568708 69.5822574,5.41568708 C69.4114628,5.41568708 69.2574751,5.39049421 69.1198401,5.34010849 C68.9817509,5.28926471 68.8641025,5.21872469 68.7668949,5.12803038 C68.6696874,5.03733607 68.5947376,4.92786162 68.5424999,4.80052314 C68.489808,4.67318467 68.463462,4.53256268 68.463462,4.37865718 C68.463462,4.22979026 68.4907165,4.09145853 68.5452254,3.96412006 C68.6001885,3.83678158 68.676501,3.72684908 68.7750713,3.63478062 C68.8736415,3.54271215 68.9908357,3.47079797 69.1280164,3.41903809 C69.2642887,3.36727821 69.4160052,3.34116924 69.5822574,3.34116924 C69.7330653,3.34116924 69.8729715,3.36407184 70.0019759,3.40987705 C70.1309804,3.45476615 70.2436321,3.51797734 70.3399312,3.59905256 C70.5761365,3.80059547 70.6942391,4.06076905 70.6942391,4.37865718 C70.6942391,4.53256268 70.6678931,4.67318467 70.6156554,4.80052314 Z M65.1388274,9.89415381 L65.1629021,9.89415381 L66.2494464,12.842177 L64.0159439,12.842177 L65.1388274,9.89415381 Z M84.4496076,11.7616779 C84.5663476,11.9343635 84.6485652,12.1336162 84.6971689,12.3585198 C84.7453185,12.5834233 84.7693932,12.8124494 84.7693932,13.0446818 C84.7693932,13.2773722 84.7453185,13.5045661 84.6971689,13.7253472 C84.6485652,13.9470444 84.5663476,14.1453809 84.4496076,14.321731 C84.3328677,14.498081 84.1757004,14.638703 83.9785598,14.7435969 C83.7814193,14.8484908 83.5379461,14.9011668 83.2481405,14.9011668 C82.958789,14.9011668 82.7171328,14.8484908 82.5240804,14.7435969 C82.3305738,14.638703 82.1756777,14.498081 82.0589378,14.321731 C81.9421978,14.1453809 81.8599802,13.9470444 81.8113765,13.7253472 C81.7632269,13.5045661 81.7391522,13.2773722 81.7391522,13.0446818 C81.7391522,12.8124494 81.7632269,12.5834233 81.8113765,12.3585198 C81.8599802,12.1336162 81.9421978,11.9343635 82.0589378,11.7616779 C82.1756777,11.5894503 82.3305738,11.4483703 82.5240804,11.339812 C82.7171328,11.2312536 82.958789,11.1767454 83.2481405,11.1767454 C83.5379461,11.1767454 83.7814193,11.2312536 83.9785598,11.339812 C84.1757004,11.4483703 84.3328677,11.5894503 84.4496076,11.7616779 Z" id="path-1"></path>
    </defs>
    <g id="Page-1" stroke="none" stroke-width="1" fill="none" fill-rule="evenodd">
        <g id="Desktop" transform="translate(-672.000000, -7022.000000)">
            <g id="footer" transform="translate(1.000000, 6905.000000)">
                <g id="base/dmca" transform="translate(671.000000, 117.000000)">
                    <mask id="mask-2" fill="white">
                        <use xlink:href="#path-1"></use>
                    </mask>
                    <use id="dmca" fill="#A6A8AB" fill-rule="evenodd" xlink:href="#path-1"></use>
                    <g id="color/lightGrey" mask="url(#mask-2)" fill="#CCCCCC" fill-rule="evenodd">
                        <g transform="translate(-2.000000, -2.000000)" id="Rectangle-6">
                            <rect x="0" y="0" width="105" height="23"></rect>
                        </g>
                    </g>
                </g>
            </g>
        </g>
    </g>
</svg>